<svg width="43" height="42" viewBox="0 0 43 42" fill="none" xmlns="http://www.w3.org/2000/svg">
<circle cx="21.5" cy="21" r="21" fill="#DAF5F4"/>
<path fill-rule="evenodd" clip-rule="evenodd" d="M14.425 11.05C14.425 10.5529 14.8279 10.15 15.325 10.15C15.8221 10.15 16.225 10.5529 16.225 11.05V14.275H26.8V11.05C26.8 10.5529 27.2029 10.15 27.7 10.15C28.1971 10.15 28.6 10.5529 28.6 11.05V14.275H31.4C31.8971 14.275 32.3 14.6779 32.3 15.175C32.3 15.672 31.8971 16.075 31.4 16.075H28.6V26.4H31.4C31.8971 26.4 32.3 26.8029 32.3 27.3C32.3 27.7971 31.8971 28.2 31.4 28.2H28.6V31.25C28.6 31.7471 28.1971 32.15 27.7 32.15C27.2029 32.15 26.8 31.747 26.8 31.25V28.2H16.225V31.25C16.225 31.7471 15.8221 32.15 15.325 32.15C14.8279 32.15 14.425 31.747 14.425 31.25V28.2H11.2C10.7029 28.2 10.3 27.7971 10.3 27.3C10.3 26.8029 10.7029 26.4 11.2 26.4H14.425V16.075H11.2C10.7029 16.075 10.3 15.672 10.3 15.175C10.3 14.6779 10.7029 14.275 11.2 14.275H14.425V11.05ZM26.8 16.075V26.4H16.225V16.075H26.8ZM23.755 22.0847C24.354 21.6894 24.354 20.8106 23.755 20.4153L20.9926 18.5926C20.3278 18.1539 19.4419 18.6307 19.4419 19.4273V23.0727C19.4419 23.8692 20.3278 24.3461 20.9926 23.9074L23.755 22.0847Z" fill="#2A938C"/>
</svg>
