<svg width="33" height="32" viewBox="0 0 33 32" fill="none" xmlns="http://www.w3.org/2000/svg">
<path fill-rule="evenodd" clip-rule="evenodd" d="M6.5 1.11111C6.5 0.497461 6.99746 0 7.61111 0C8.22476 0 8.72222 0.497461 8.72222 1.11111V6H24.5V1.11111C24.5 0.497461 24.9975 0 25.6111 0C26.2248 0 26.7222 0.497461 26.7222 1.11111V6H31.3889C32.0025 6 32.5 6.49746 32.5 7.11111C32.5 7.72476 32.0025 8.22222 31.3889 8.22222H26.7222V24H31.3889C32.0025 24 32.5 24.4975 32.5 25.1111C32.5 25.7248 32.0025 26.2222 31.3889 26.2222H26.7222V30.8889C26.7222 31.5025 26.2248 32 25.6111 32C24.9975 32 24.5 31.5025 24.5 30.8889V26.2222H8.72222V30.8889C8.72222 31.5025 8.22476 32 7.61111 32C6.99746 32 6.5 31.5025 6.5 30.8889V26.2222H1.61111C0.997461 26.2222 0.5 25.7248 0.5 25.1111C0.5 24.4975 0.997461 24 1.61111 24H6.5V8.22222H1.61111C0.997461 8.22222 0.5 7.72476 0.5 7.11111C0.5 6.49746 0.997461 6 1.61111 6H6.5V1.11111ZM24.5 8.22222V24H8.72222V8.22222H24.5ZM19.8232 16.8461C20.446 16.4539 20.446 15.5461 19.8232 15.1538L15.3663 12.3467C14.7003 11.9273 13.8333 12.4058 13.8333 13.1928V18.8071C13.8333 19.5941 14.7003 20.0727 15.3663 19.6533L19.8232 16.8461Z" fill="#3A938D"/>
</svg>
